<svg width="96" height="96" viewBox="0 0 96 96" fill="none" xmlns="http://www.w3.org/2000/svg">
<mask id="mask0_1861_3183" style="mask-type:alpha" maskUnits="userSpaceOnUse" x="0" y="0" width="96" height="96">
<path d="M48 96C74.5097 96 96 74.5097 96 48C96 21.4903 74.5097 0 48 0C21.4903 0 0 21.4903 0 48C0 74.5097 21.4903 96 48 96Z" fill="#CFCFFF"/>
</mask>
<g mask="url(#mask0_1861_3183)">
<path d="M48 96C74.5097 96 96 74.5097 96 48C96 21.4903 74.5097 0 48 0C21.4903 0 0 21.4903 0 48C0 74.5097 21.4903 96 48 96Z" fill="#CFCFFF"/>
<path d="M33.5338 73.7152C33.5338 73.7152 26.5861 79.6213 27.4674 87.8396L30.9814 86.0082L29.7795 96.55C29.7795 96.55 35.2049 99.423 49.1806 99.423C63.1562 99.423 65.949 97.0308 65.949 97.0308L66.1093 87.0498L69.4629 88.492C69.4629 88.492 71.6949 78.1104 64.5183 73.6465L33.5453 73.7266L33.5338 73.7152Z" fill="#B8F16F" stroke="#4E49E2" stroke-width="1.5" stroke-linecap="round" stroke-linejoin="round"/>
<path d="M34.2713 85.0197C34.2713 85.0197 41.6654 81.4027 44.3095 80.5443C46.9535 79.6858 45.0649 82.9365 45.0649 82.9365C45.0649 82.9365 48.7162 86.645 46.8391 89.186C44.9619 91.7271 40.7727 94.8518 33.4472 94.497C26.1103 94.1422 27.7585 86.4733 27.7585 86.4733L34.2713 85.0197Z" fill="white" stroke="#4E49E2" stroke-width="1.5" stroke-linecap="round" stroke-linejoin="round"/>
<path d="M63.5042 85.0165C59.3975 83.7687 56.1101 81.3996 53.466 80.5411C50.822 79.6941 52.7106 82.9334 52.7106 82.9334C52.7106 82.9334 49.0593 86.6419 50.9364 89.1829C52.8136 91.7239 57.0028 94.8487 64.3283 94.4939C71.6652 94.139 70.017 86.4702 70.017 86.4702C70.017 86.4702 65.9976 85.7742 63.5042 85.0165Z" fill="white" stroke="#4E49E2" stroke-width="1.5" stroke-linecap="round" stroke-linejoin="round"/>
<path d="M60.226 24.9669C60.226 24.9669 65.2508 18.5228 69.772 22.9867C74.2932 27.4507 70.0353 31.9833 70.0353 31.9833C70.0353 31.9833 76.3649 34.8563 76.88 50.5145C76.9716 53.4561 79.4325 58.2749 76.7541 63.9292C73.389 71.0487 64.69 74.9976 48.0818 75.0433C33.2706 75.0891 23.6673 71.0601 20.7829 64.0895C18.3907 58.3092 20.9775 53.7537 20.9203 50.8121C20.7028 39.5949 26.9066 31.7429 26.9066 31.7429C26.9066 31.7429 22.042 26.2488 26.5403 21.762C31.0386 17.2751 36.67 24.6693 36.67 24.6693C36.67 24.6693 40.5159 22.3343 48.1046 22.3114C55.6934 22.2885 60.226 24.9783 60.226 24.9783V24.9669Z" fill="white" stroke="#4E49E2" stroke-width="1.5" stroke-linecap="round" stroke-linejoin="round"/>
<path d="M56.5516 23.9365C56.5516 23.9365 61.4963 26.0426 60.7523 28.7553C60.0083 31.468 49.787 27.9426 47.784 27.2558C45.7809 26.5691 40.241 24.7492 37.8145 24.6919C37.8145 24.6919 37.9289 17.355 40.6531 15.1917C43.3772 13.017 46.8683 11.8838 50.3822 13.3832C53.8961 14.8827 56.6089 16.7598 56.9637 19.7014C57.3185 22.6431 56.5516 23.9479 56.5516 23.9479V23.9365Z" fill="#6D6EE4" stroke="#4E49E2" stroke-width="1.5" stroke-linecap="round" stroke-linejoin="round"/>
<path d="M50.2676 15.9473C50.2676 15.9473 52.5797 18.6485 52.2363 21.1094" stroke="#4E49E2" stroke-width="1.5" stroke-linecap="round" stroke-linejoin="round"/>
<path d="M47.8756 16.0962C47.8756 16.0962 45.9069 18.6716 45.5864 20.1366" stroke="#4E49E2" stroke-width="1.5" stroke-linecap="round" stroke-linejoin="round"/>
<path d="M44.1098 15.5464C44.1098 15.5464 41.6489 16.9771 41.4429 19.4151" stroke="#4E49E2" stroke-width="1.5" stroke-linecap="round" stroke-linejoin="round"/>
<path d="M54.1708 23.7989C54.1708 23.7989 48.9399 22.8146 43.0566 23.5242" stroke="#4E49E2" stroke-width="1.5" stroke-linecap="round" stroke-linejoin="round"/>
<path d="M41.0917 56.3045C41.2035 54.4557 39.2071 52.8307 36.6327 52.6751C34.0582 52.5194 31.8806 53.892 31.7688 55.7408C31.657 57.5896 33.6534 59.2146 36.2279 59.3702C38.8023 59.5259 40.98 58.1533 41.0917 56.3045Z" fill="#FFE9E9"/>
<path d="M60.4371 59.0823C63.0106 58.9118 64.9976 57.2754 64.8752 55.4272C64.7528 53.5791 62.5673 52.2191 59.9938 52.3896C57.4202 52.56 55.4332 54.1965 55.5557 56.0446C55.6781 57.8927 57.8636 59.2528 60.4371 59.0823Z" fill="#FFE9E9"/>
<path d="M40.5155 44.8366C40.5155 44.8366 38.3751 44.5733 38.2606 47.5264C38.1462 50.4795 38.9245 50.9717 40.1263 51.0175C41.3282 51.0632 42.53 50.1247 42.3583 47.4463C42.1866 44.7679 40.5155 44.8366 40.5155 44.8366Z" fill="#4E49E2"/>
<path d="M57.8115 44.7907C57.8115 44.7907 55.6711 44.5274 55.5566 47.4805C55.4536 50.4221 56.2205 50.9258 57.4223 50.9716C58.6241 51.0173 59.826 50.0788 59.6543 47.4004C59.4826 44.722 57.8115 44.7907 57.8115 44.7907Z" fill="#4E49E2"/>
<path d="M48.5046 50.6745C47.9781 50.6974 47.0166 50.7088 46.9708 51.8877C46.925 53.0667 47.8751 53.9824 48.6534 53.9137C49.489 53.845 50.4962 52.6775 50.1528 51.2582C49.9926 50.5943 49.1685 50.6401 48.5046 50.6745Z" fill="#4E49E2"/>
<path d="M48.7907 56.1681L48.5732 52.9976" stroke="#4E49E2" stroke-width="1.5" stroke-linecap="round" stroke-linejoin="round"/>
<path d="M57.0234 39.623C57.0234 39.623 57.7331 42.1183 60.3313 42.0382" stroke="#4E49E2" stroke-width="1.5" stroke-linecap="round" stroke-linejoin="round"/>
<path d="M40.4967 39.6001C40.4967 39.6001 39.7985 42.0953 37.2002 42.0267" stroke="#4E49E2" stroke-width="1.5" stroke-linecap="round" stroke-linejoin="round"/>
<path d="M44.8882 60.3236C44.8882 60.3236 45.7237 57.073 48.9744 57.0615C52.2137 57.0615 53.2209 60.4381 53.2209 60.4381" stroke="#4E49E2" stroke-width="1.5" stroke-linecap="round" stroke-linejoin="round"/>
</g>
</svg>
