<svg width="500" height="120" viewBox="0 0 500 120" fill="none" xmlns="http://www.w3.org/2000/svg">
<g clip-path="url(#clip0_2078_5057)">
<path d="M311.637 120.176C311.637 120.176 333.318 109.611 332.066 97.7837C330.813 85.9566 320.326 89.3968 317.072 93.9974C313.819 98.598 300.887 106.883 300.887 106.883L311.637 120.176Z" fill="white"/>
<path d="M311.638 121.703C311.193 121.703 310.748 121.499 310.466 121.133L299.716 107.84C299.453 107.494 299.332 107.066 299.392 106.639C299.453 106.211 299.716 105.825 300.079 105.601C303.615 103.341 313.335 96.6846 315.841 93.1222C318.043 90.0077 323.034 87.3613 327.298 88.4809C329.339 89.0102 332.855 90.9237 333.562 97.6414C334.916 110.385 313.214 121.112 312.284 121.56C312.082 121.662 311.84 121.723 311.617 121.723L311.638 121.703ZM303.131 107.229L312.042 118.242C316.265 115.983 331.541 107.148 330.571 97.9467C330.308 95.3818 329.379 92.1655 326.55 91.4326C323.66 90.6591 319.902 92.654 318.326 94.8932C315.578 98.7813 306.667 104.909 303.151 107.25L303.131 107.229Z" fill="#4E49E2"/>
<path d="M219.01 117.631C219.01 117.631 197.348 107.066 198.601 95.2393C199.854 83.4122 210.341 86.8524 213.594 91.453C216.848 96.0535 229.78 104.339 229.78 104.339L219.03 117.631H219.01Z" fill="white"/>
<path d="M219.009 119.158C218.787 119.158 218.565 119.117 218.342 118.995C217.413 118.547 195.711 107.82 197.065 95.0764C197.772 88.3588 201.288 86.4656 203.329 85.916C207.613 84.7964 212.604 87.4427 214.786 90.5573C217.312 94.1197 227.031 100.776 230.547 103.036C230.911 103.26 231.153 103.646 231.234 104.074C231.295 104.501 231.194 104.949 230.911 105.275L220.161 118.568C219.858 118.934 219.433 119.138 218.989 119.138L219.009 119.158ZM205.43 88.7252C204.965 88.7252 204.521 88.7863 204.097 88.888C201.268 89.6412 200.358 92.8372 200.075 95.4021C199.186 103.728 212.26 112.4 218.585 115.718L227.496 104.685C223.98 102.344 215.069 96.2367 212.321 92.3283C210.967 90.4148 208.037 88.7048 205.43 88.7048V88.7252Z" fill="#4E49E2"/>
<path d="M289.652 109.468L306.282 101.794L315.173 121.723L301.635 127.219L299.655 149.795C299.655 149.795 284.52 153.316 265.91 153.723C247.299 154.13 231.417 149.225 231.417 149.225L231.134 126.446L216.666 119.443L227.335 102.914L241.015 109.305L289.652 109.448V109.468Z" fill="#B8F16F"/>
<path d="M263.93 155.271C247.017 155.271 231.68 150.894 231.013 150.69C230.367 150.507 229.922 149.917 229.922 149.245L229.66 127.423L216.04 120.827C215.656 120.644 215.353 120.278 215.232 119.871C215.111 119.443 215.192 118.995 215.414 118.629L226.083 102.1C226.487 101.468 227.316 101.224 227.982 101.55L241.359 107.799L289.33 107.942L305.657 100.41C306.021 100.247 306.445 100.227 306.829 100.369C307.213 100.512 307.516 100.797 307.677 101.163L316.568 121.092C316.73 121.479 316.75 121.906 316.589 122.293C316.427 122.68 316.124 122.985 315.74 123.148L303.07 128.298L301.171 149.937C301.11 150.589 300.646 151.138 299.999 151.301C299.837 151.342 284.5 154.864 265.951 155.271C265.284 155.271 264.597 155.291 263.93 155.291V155.271ZM232.933 148.044C236.894 149.082 251.159 152.482 265.89 152.197C281.328 151.871 294.503 149.327 298.241 148.533L300.12 127.077C300.161 126.507 300.545 126.018 301.07 125.794L313.133 120.889L305.515 103.809L290.28 110.832C290.077 110.914 289.855 110.873 289.653 110.975L241.016 110.832C240.793 110.832 240.571 110.792 240.389 110.69L227.902 104.848L218.889 118.812L231.802 125.062C232.327 125.306 232.65 125.835 232.65 126.426L232.913 148.044H232.933Z" fill="#4E49E2"/>
<path d="M285.864 28.9684C285.864 28.9684 294.12 18.3024 301.548 25.6909C308.976 33.0794 301.981 40.5815 301.981 40.5815C301.981 40.5815 312.38 45.3367 313.226 71.2532C313.377 76.122 317.42 84.0978 313.019 93.4565C307.491 105.24 293.199 111.776 265.912 111.852C241.578 111.928 225.8 105.259 221.061 93.7217C217.131 84.1546 221.381 76.6146 221.287 71.7457C220.93 53.1798 231.122 40.1837 231.122 40.1837C231.122 40.1837 223.13 31.0902 230.52 23.6638C237.911 16.2375 247.163 28.4758 247.163 28.4758C247.163 28.4758 253.482 24.6111 265.95 24.5732C278.418 24.5353 285.864 28.9873 285.864 28.9873V28.9684Z" fill="white"/>
<path d="M265.517 113.254C241.051 113.254 224.803 106.509 219.763 94.252C216.848 87.1856 218.184 81.0664 219.143 76.5955C219.556 74.701 219.914 73.0717 219.876 71.7645C219.575 55.5099 227.003 43.5557 229.335 40.2214C226.42 36.3377 223.43 28.7598 229.523 22.6406C231.535 20.6135 233.867 19.6663 236.444 19.8557C241.408 20.1968 245.809 24.6867 247.539 26.6759C249.908 25.5392 256.058 23.1711 265.949 23.1332H266.1C276.16 23.1332 283.006 25.956 285.526 27.1874C287.086 25.4824 290.791 21.9776 295.21 21.6934C297.899 21.5229 300.363 22.527 302.526 24.6867C308.355 30.4648 306.437 36.7924 304.03 40.2593C307.114 42.6842 313.922 50.3379 314.617 71.1962C314.655 72.3897 314.956 73.8485 315.313 75.5345C316.31 80.2897 317.683 86.7878 314.279 94.0436C308.261 106.888 292.427 113.178 265.893 113.254H265.498H265.517ZM235.842 22.6785C234.262 22.6785 232.833 23.3226 231.517 24.6488C225.16 31.0332 231.893 38.8953 232.194 39.2173C232.645 39.7289 232.664 40.5056 232.25 41.036C232.156 41.1687 222.377 53.8996 222.716 71.6887C222.753 73.3369 222.358 75.1178 221.907 77.1827C220.967 81.5022 219.801 86.9014 222.377 93.1532C226.89 104.122 242.612 110.412 265.554 110.412H265.93C291.261 110.336 306.268 104.577 311.778 92.8312C314.787 86.4278 313.583 80.7065 312.605 76.1218C312.229 74.3031 311.891 72.7307 311.834 71.2909C311.026 46.8142 301.491 41.9075 301.397 41.8696C300.984 41.6802 300.701 41.2823 300.607 40.8466C300.532 40.3919 300.645 39.9372 300.965 39.6152C301.209 39.35 306.907 33.0034 300.57 26.7138C298.971 25.1224 297.298 24.4025 295.417 24.5351C290.941 24.8193 287.011 29.8018 286.974 29.8586C286.541 30.427 285.751 30.5596 285.149 30.1996C285.074 30.1617 277.891 25.9939 266.1 25.9939H265.949C254.102 26.0318 247.952 29.6502 247.896 29.6881C247.275 30.0481 246.486 29.9154 246.053 29.3282C245.997 29.2713 241.22 23.0195 236.237 22.6975C236.105 22.6975 235.973 22.6975 235.842 22.6975V22.6785Z" fill="#4E49E2"/>
<path d="M254.419 77.6711C254.603 74.611 251.323 71.9215 247.093 71.6639C242.863 71.4062 239.286 73.6781 239.102 76.7381C238.918 79.7981 242.198 82.4877 246.428 82.7453C250.658 83.0029 254.236 80.7311 254.419 77.6711Z" fill="#FFE9E9"/>
<path d="M286.214 83.7027C290.442 83.4205 293.707 80.712 293.506 77.6531C293.305 74.5942 289.714 72.3431 285.486 72.6253C281.258 72.9075 277.993 75.616 278.194 78.6749C278.395 81.7339 281.986 83.9849 286.214 83.7027Z" fill="#FFE9E9"/>
<path d="M253.482 61.5407C253.482 61.5407 249.965 61.105 249.777 65.9928C249.608 70.8616 250.868 71.6952 252.842 71.7709C254.817 71.8467 256.791 70.2932 256.509 65.8602C256.227 61.4271 253.482 61.5407 253.482 61.5407Z" fill="#4E49E2"/>
<path d="M280.844 61.446C280.844 61.446 277.327 61.0103 277.139 65.898C276.951 70.7858 278.23 71.6004 280.205 71.6762C282.179 71.752 284.154 70.1985 283.872 65.7654C283.59 61.3323 280.844 61.446 280.844 61.446V61.446Z" fill="#4E49E2"/>
<path d="M266.608 68.3798C265.743 68.4177 264.164 68.4366 264.089 70.3879C264.013 72.3392 265.574 73.8548 266.853 73.7412C268.226 73.6275 269.881 71.6951 269.316 69.346C269.053 68.2472 267.699 68.3229 266.608 68.3798V68.3798Z" fill="#4E49E2"/>
<path d="M267.058 78.8941C266.325 78.8941 265.704 78.3258 265.648 77.568L265.291 72.3203C265.234 71.5435 265.836 70.8615 266.607 70.8047C267.359 70.7857 268.055 71.3351 268.112 72.1308L268.469 77.3785C268.525 78.1553 267.924 78.8373 267.153 78.8941C267.115 78.8941 267.096 78.8941 267.058 78.8941Z" fill="#4E49E2"/>
<path d="M267.114 85.7334C265.046 85.7334 263.861 84.8619 263.203 84.0852C261.172 81.7171 261.924 77.7955 262.018 77.3408C262.093 76.943 262.338 76.6209 262.676 76.4125C263.015 76.2042 263.428 76.1663 263.804 76.2799C263.842 76.2799 267.866 77.4924 270.819 76.0147C271.195 75.8253 271.646 75.8063 272.041 75.9958C272.436 76.1663 272.718 76.5262 272.831 76.943C272.925 77.3408 273.771 80.9972 271.928 83.5358C271.27 84.4451 269.991 85.5629 267.603 85.7144C267.434 85.7144 267.283 85.7144 267.114 85.7144V85.7334ZM264.632 79.3679C264.613 80.3531 264.745 81.5466 265.328 82.2286C265.478 82.4181 265.967 82.9485 267.415 82.8727C268.449 82.7969 269.183 82.4749 269.634 81.8686C270.142 81.1677 270.274 80.1257 270.255 79.2353C268.167 79.7847 266.042 79.6142 264.632 79.3679V79.3679Z" fill="#4E49E2"/>
<path d="M255.541 21.7755C255.541 21.7755 247.263 23.1852 247.387 27.5935C247.511 32.0018 264.338 30.3477 267.624 30.0248C270.909 29.7019 280.009 28.9518 283.707 29.7497C283.707 29.7497 286.211 18.5479 282.869 14.2469C279.528 9.94586 274.639 6.96011 268.751 7.96519C262.863 8.97026 258.056 10.8421 256.445 15.1918C254.834 19.5416 255.534 21.7929 255.534 21.7929L255.541 21.7755Z" fill="#6D6EE4"/>
<path fill-rule="evenodd" clip-rule="evenodd" d="M268.581 6.94904C274.964 5.85951 280.195 9.12449 283.682 13.6129C284.677 14.8927 285.183 16.6048 285.429 18.3367C285.678 20.0863 285.675 21.9658 285.569 23.6738C285.462 25.3866 285.248 26.9568 285.062 28.0971C284.969 28.6681 284.882 29.1335 284.818 29.4578C284.786 29.6199 284.76 29.7469 284.741 29.8343L284.72 29.9352L284.714 29.9623L284.712 29.9699L284.712 29.9721C284.712 29.9724 284.712 29.9734 283.707 29.7498L284.712 29.9721C284.588 30.5254 284.042 30.8769 283.489 30.7577C281.787 30.3904 278.714 30.3684 275.551 30.4971C272.43 30.6242 269.355 30.8905 267.723 31.0509L267.715 31.0517C266.066 31.2137 260.991 31.7126 256.297 31.6142C253.958 31.5651 251.636 31.3671 249.862 30.8718C248.979 30.625 248.152 30.2835 247.522 29.7885C246.868 29.2745 246.385 28.5551 246.359 27.6245C246.318 26.1594 246.988 24.9839 247.887 24.0927C248.772 23.2153 249.922 22.5643 251.006 22.0877C252.099 21.6066 253.187 21.2764 253.993 21.0668C254.128 21.0319 254.255 21.0001 254.374 20.9715C254.357 20.7214 254.349 20.431 254.357 20.1008C254.386 18.8747 254.638 17.1117 255.481 14.8348C257.313 9.89031 262.703 7.95223 268.581 6.94904ZM255.542 22.8239C255.5 22.8322 255.45 22.8423 255.394 22.854C255.182 22.8983 254.875 22.9669 254.506 23.0626C253.765 23.2552 252.791 23.5529 251.83 23.9753C250.86 24.4021 249.965 24.9302 249.333 25.5569C248.715 26.1698 248.396 26.8237 248.416 27.5628C248.421 27.7342 248.491 27.9275 248.794 28.1655C249.121 28.4225 249.655 28.6725 250.418 28.8856C251.937 29.3098 254.05 29.5047 256.344 29.5528C260.908 29.6485 265.88 29.1606 267.526 28.9989C269.179 28.8364 272.297 28.5662 275.471 28.437C278.111 28.3295 280.889 28.314 282.892 28.5696C282.935 28.3373 282.982 28.0681 283.031 27.7677C283.21 26.6732 283.413 25.1741 283.515 23.5489C283.616 21.9188 283.613 20.1914 283.392 18.6309C283.167 17.0528 282.734 15.7519 282.057 14.8811C278.862 10.7675 274.316 8.06094 268.923 8.98157C263.023 9.98853 258.801 11.7941 257.41 15.5491C256.643 17.6219 256.438 19.1594 256.414 20.1464C256.403 20.6408 256.436 21.0004 256.468 21.2234C256.478 21.292 256.488 21.3478 256.497 21.3907C256.594 21.6353 256.596 21.9125 256.494 22.1639L256.487 22.1812C256.329 22.5679 255.956 22.8199 255.542 22.8239Z" fill="#4E49E2"/>
<path fill-rule="evenodd" clip-rule="evenodd" d="M268.851 11.2972C269.184 11.7581 269.08 12.4027 268.62 12.737L268.017 11.9025C268.62 12.737 268.619 12.7371 268.62 12.737C268.62 12.737 268.62 12.7366 268.62 12.737L268.614 12.7414L268.583 12.7641C268.555 12.7853 268.512 12.8183 268.455 12.8626C268.342 12.9512 268.176 13.0843 267.975 13.2569C267.572 13.603 267.031 14.1022 266.481 14.7128C265.352 15.9667 264.317 17.5476 264.164 19.1521C264.11 19.719 263.608 20.1355 263.042 20.0825C262.477 20.0294 262.062 19.5269 262.116 18.96C262.333 16.6816 263.736 14.6857 264.954 13.3335C265.577 12.6411 266.186 12.0799 266.639 11.6915C266.866 11.4967 267.055 11.344 267.19 11.2386C267.257 11.1858 267.311 11.1448 267.349 11.1162L267.394 11.0825L267.408 11.0728L267.412 11.0698L267.413 11.0687C267.414 11.0685 267.414 11.0679 268.017 11.9025L267.413 11.0687C267.874 10.7344 268.518 10.8363 268.851 11.2972Z" fill="#4E49E2"/>
<path fill-rule="evenodd" clip-rule="evenodd" d="M271.181 12.0517C271.702 11.8221 272.309 12.0584 272.537 12.5795L271.594 12.9951C272.537 12.5795 272.537 12.5793 272.537 12.5795L272.539 12.5843L272.544 12.5958L272.562 12.6381C272.578 12.6748 272.601 12.7279 272.629 12.796C272.687 12.932 272.768 13.1276 272.866 13.3692C273.06 13.8516 273.319 14.5208 273.577 15.2667C274.075 16.704 274.637 18.6101 274.613 19.9845C274.603 20.5538 274.134 21.0079 273.566 20.9987C272.997 20.9896 272.545 20.5206 272.555 19.9513C272.572 18.9916 272.14 17.4112 271.633 15.9457C271.388 15.2401 271.142 14.6038 270.957 14.1435C270.864 13.9137 270.787 13.7287 270.734 13.602C270.707 13.5386 270.686 13.4899 270.672 13.4574L270.657 13.4212L270.653 13.4127L270.652 13.4108C270.652 13.4108 270.652 13.4109 270.652 13.4108M271.181 12.0517C270.661 12.2812 270.424 12.8898 270.652 13.4108Z" fill="#4E49E2"/>
<path fill-rule="evenodd" clip-rule="evenodd" d="M277.167 26.3992C276.969 26.9333 276.377 27.2064 275.844 27.0092C271.587 25.4332 267.411 24.5424 264.293 24.0463C262.736 23.7985 261.448 23.6499 260.552 23.5634C260.104 23.5202 259.754 23.4925 259.518 23.4757C259.4 23.4673 259.311 23.4616 259.252 23.4581L259.186 23.4543L259.171 23.4535L259.167 23.4533C258.6 23.4255 258.163 22.942 258.192 22.3734C258.22 21.8047 258.704 21.3662 259.271 21.3939L259.219 22.4233C259.271 21.3939 259.271 21.3939 259.271 21.3939L259.274 21.3941L259.28 21.3944L259.301 21.3955L259.378 21.3999C259.444 21.4039 259.542 21.41 259.668 21.419C259.92 21.437 260.287 21.4661 260.753 21.5111C261.685 21.601 263.016 21.7547 264.62 22.0099C267.824 22.5198 272.14 23.4383 276.56 25.075C277.093 25.2723 277.364 25.8651 277.167 26.3992Z" fill="#4E49E2"/>
</g>
<ellipse cx="412.13" cy="37.5911" rx="2.27809" ry="2.27522" fill="#FFEB80"/>
<ellipse cx="139.314" cy="87.2643" rx="4.55621" ry="4.55043" fill="#FFEB80"/>
<ellipse cx="392.522" cy="32.8481" rx="6.8343" ry="6.82565" fill="#ADDAFF"/>
<ellipse cx="213.669" cy="8.6844" rx="2.2781" ry="2.27522" fill="#FFBBC2"/>
<ellipse cx="90.9879" cy="73.3239" rx="4.55621" ry="4.55042" fill="#FFEB80"/>
<ellipse cx="2.2781" cy="42.2381" rx="2.2781" ry="2.27522" fill="#FFEB80"/>
<path d="M499.727 28.2011C499.727 31.9708 496.667 35.0268 492.893 35.0268C489.118 35.0268 486.059 31.9708 486.059 28.2011C486.059 24.4314 489.118 21.3755 492.893 21.3755C496.667 21.3755 499.727 24.4314 499.727 28.2011Z" fill="#A5F0AF"/>
<ellipse cx="426.49" cy="55.6657" rx="4.5562" ry="4.55043" fill="#FFBBC2"/>
<circle cx="170.539" cy="59.9442" r="6.04089" fill="#FFBBC2"/>
<ellipse cx="62.1773" cy="21.2789" rx="4.55621" ry="4.55043" fill="#FFBBC2"/>
<ellipse cx="45.8675" cy="84.8925" rx="6.83432" ry="6.82565" fill="#ADDAFF"/>
<ellipse cx="378.162" cy="73.3239" rx="4.55623" ry="4.55042" fill="#A5F0AF"/>
<ellipse cx="132.389" cy="66.4017" rx="2.27811" ry="2.27522" fill="#A5F0AF"/>
<defs>
<clipPath id="clip0_2078_5057">
<rect width="137.546" height="156.134" fill="white" transform="translate(196.096)"/>
</clipPath>
</defs>
</svg>
