<svg width="124" height="56" viewBox="0 0 124 56" fill="none" xmlns="http://www.w3.org/2000/svg">
<path d="M13.9987 12.2474C16.2764 12.2474 18.1224 10.4014 18.1224 8.12368C18.1224 5.84601 16.2764 4 13.9987 4C11.721 4 9.875 5.84601 9.875 8.12368C9.875 10.4014 11.721 12.2474 13.9987 12.2474Z" fill="#B8F16F"/>
<path d="M32.8844 12.2474C35.1621 12.2474 37.0081 10.4014 37.0081 8.12368C37.0081 5.84601 35.1621 4 32.8844 4C30.6068 4 28.7607 5.84601 28.7607 8.12368C28.7607 10.4014 30.6068 12.2474 32.8844 12.2474Z" fill="#B8F16F"/>
<path d="M37.1178 34.1424V22.878H41.7512C44.0335 22.878 45.8841 21.0274 45.8841 18.7452C45.8841 16.4629 44.0335 14.6123 41.7512 14.6123H5.13402C2.85175 14.6123 1.00115 16.4629 1.00115 18.7452C1.00115 21.0274 2.85175 22.878 5.13402 22.878H9.86385V34.046L2.20886 41.701C0.597045 43.3128 0.597045 45.9303 2.20886 47.5467C3.82068 49.1585 6.43817 49.1585 8.05458 47.5467L13.9967 41.6045L18.3959 46.0037L19.5761 47.1839C21.7114 49.3192 25.1692 49.3192 27.3046 47.1839L29.0312 45.4573L32.8839 41.6045L38.8261 47.5421C40.4379 49.1539 43.0554 49.1539 44.6718 47.5421C46.2836 45.9303 46.2882 43.3128 44.6718 41.6964L37.1178 34.1424ZM28.7511 34.046L23.438 39.3544L18.1296 34.046V22.878H28.7511V34.046Z" fill="#5244EB"/>
<path d="M66.5199 31.1578C66.5199 33.2931 64.7887 35.0197 62.658 35.0197H57.8639V52.3548H49.4512V14.1717C49.4512 11.8481 51.3339 9.96533 53.6575 9.96533C55.9811 9.96533 57.8639 11.8481 57.8639 14.1717V27.2958H62.658C64.7887 27.2958 66.5153 29.0224 66.5199 31.1578Z" fill="#5244EB"/>
<path d="M119.812 9.96094C117.493 9.96094 115.615 11.8391 115.615 14.1489V19.641H102.481C99.1935 15.4209 94.1285 12.7162 88.4481 12.7162C78.5384 12.7162 70.5068 20.9406 70.5068 31.0845C70.5068 41.2284 78.5384 49.4528 88.4481 49.4528C94.1331 49.4528 99.1981 46.7481 102.486 42.5233H115.619V52.2907H124V14.1489C124 11.8345 122.126 9.96094 119.812 9.96094ZM97.0582 35.2816C96.599 36.5812 95.9561 37.72 95.1433 38.6568C94.3397 39.589 93.3478 40.3329 92.1906 40.8932C91.0426 41.4396 89.7706 41.7197 88.4159 41.7197C87.0613 41.7197 85.803 41.4396 84.6918 40.8977C83.5575 40.3421 82.5748 39.5936 81.7712 38.6614C80.963 37.7292 80.3201 36.5904 79.8563 35.2862C79.3925 33.9729 79.1583 32.5448 79.1583 31.0432C79.1583 29.5415 79.3925 28.2144 79.8517 26.9287C80.3109 25.6475 80.9584 24.5086 81.7758 23.5397C82.5748 22.5937 83.5529 21.8452 84.6734 21.3217C85.7939 20.7936 87.0521 20.5319 88.4159 20.5319C89.7798 20.5319 91.0472 20.7982 92.2044 21.3263C93.3478 21.8498 94.3351 22.5937 95.1341 23.5397C95.9515 24.5132 96.599 25.6521 97.0582 26.9287C97.522 28.2098 97.7562 29.5921 97.7562 31.0386C97.7562 32.4851 97.522 33.9683 97.0582 35.2816ZM115.619 34.7949H106.027C106.265 33.5963 106.389 32.3565 106.389 31.0845C106.389 29.8125 106.261 28.568 106.022 27.3695H115.619V34.7949Z" fill="#5244EB"/>
</svg>
