<svg width="124" height="142" viewBox="0 0 124 142" fill="none" xmlns="http://www.w3.org/2000/svg">
<path d="M62 120.426C95.1371 120.426 122 93.5629 122 60.4258C122 27.2887 95.1371 0.425781 62 0.425781C28.8629 0.425781 2 27.2887 2 60.4258C2 93.5629 28.8629 120.426 62 120.426Z" fill="#E0E0FC"/>
<path d="M13.2398 109.048C13.2398 109.048 5.84344 111.098 5.4289 113.106C4.7198 116.553 6.54162 135.131 8.47253 137.258C10.4034 139.386 16.5889 140.302 19.8398 139.997C23.0907 139.691 51.1925 133.811 52.6216 132.382C54.0507 130.953 53.7344 120.404 53.538 116.957C53.3416 113.509 51.8144 108.229 49.2725 105.993C46.7307 103.757 44.9089 102.851 41.9634 103.157C39.018 103.462 13.2398 109.048 13.2398 109.048Z" fill="#E0AA53" stroke="#4E49E2" stroke-width="1.5" stroke-linecap="round" stroke-linejoin="round"/>
<path d="M7.95996 112.8C7.95996 112.8 13.6436 115.538 15.5745 115.233C17.5054 114.927 36.0727 109.855 43.6872 109.047" stroke="#4E49E2" stroke-width="1.5" stroke-linecap="round" stroke-linejoin="round"/>
<path d="M14.7666 115.342C14.7666 115.342 16.0866 133.506 16.8939 136.146" stroke="#4E49E2" stroke-width="1.5" stroke-linecap="round" stroke-linejoin="round"/>
<path d="M46.8692 116.048L37.8457 120.238L41.0667 127.174L50.0902 122.984L46.8692 116.048Z" fill="#7EE0BD" stroke="#4E49E2" stroke-width="1.5" stroke-linecap="round" stroke-linejoin="round"/>
<path d="M24.0399 120.84L20.1562 131.488L33.509 124.299L24.0399 120.84Z" fill="#EF65C1" stroke="#4E49E2" stroke-width="1.5" stroke-linecap="round" stroke-linejoin="round"/>
<path d="M46.9507 128.747C47.7834 126.783 47.1094 124.619 45.4454 123.914C43.7813 123.208 41.7574 124.228 40.9247 126.191C40.092 128.155 40.766 130.319 42.43 131.024C44.094 131.73 46.118 130.71 46.9507 128.747Z" fill="#B7E26D" stroke="#4E49E2" stroke-width="1.5" stroke-linecap="round" stroke-linejoin="round"/>
<path d="M36.3234 104.051C36.3234 104.051 41.5707 108.088 42.0289 109.528C42.487 110.968 45.6834 133.582 45.3016 135.251C45.3016 135.251 49.338 135.862 50.3961 133.124C50.3961 133.124 48.8252 110.455 47.047 108.317C45.2689 106.178 42.858 103.298 40.7307 102.993C39.6725 102.84 36.9998 102 36.3125 104.062L36.3234 104.051Z" fill="#6D6EE4" stroke="#4E49E2" stroke-width="1.5" stroke-linecap="round" stroke-linejoin="round"/>
<path d="M23.6144 108.698L26.0471 110.597C26.0471 110.597 27.269 110.597 26.9635 109.604C26.6581 108.611 25.2944 107.477 25.2944 107.477L24.989 104.738L33.5853 102.535C33.5853 102.535 33.8908 106.342 35.3308 107.477C36.7708 108.611 38.2981 108.622 38.909 108.317L37.3053 106.113C37.3053 106.113 36.7708 100.255 34.7199 99.873C32.669 99.4912 23.0035 100.942 22.6217 103.069C22.2399 105.197 23.6144 108.698 23.6144 108.698Z" fill="#D8D8D8" stroke="#4E49E2" stroke-width="1.5" stroke-linecap="round" stroke-linejoin="round"/>
<path d="M13.2396 109.048C13.2396 109.048 20.6469 112.299 21.5632 114.022C22.4796 115.746 25.0105 137.259 24.3996 139.593C24.3996 139.593 24.4869 140.051 26.3196 139.702C28.1523 139.353 28.676 139.168 28.796 138.404C28.916 137.64 27.5742 115.266 26.1342 112.484C24.6942 109.702 19.2505 107.269 17.5705 107.193C15.8905 107.117 12.116 108.437 13.2396 109.037V109.048Z" fill="#6D6EE4" stroke="#4E49E2" stroke-width="1.5" stroke-linecap="round" stroke-linejoin="round"/>
<path d="M110.941 140.822C112.748 140.836 114.225 139.382 114.239 137.575C114.253 135.767 112.8 134.291 110.992 134.276C109.185 134.262 107.708 135.716 107.694 137.523C107.68 139.331 109.133 140.807 110.941 140.822Z" fill="#BFC4E1" stroke="#4E49E2" stroke-width="1.5" stroke-linecap="round" stroke-linejoin="round"/>
<path d="M98.4213 138.54C99.9275 138.552 101.158 137.341 101.17 135.835C101.182 134.329 99.9707 133.098 98.4645 133.086C96.9583 133.074 95.7276 134.285 95.7157 135.792C95.7038 137.298 96.9151 138.528 98.4213 138.54Z" fill="#BFC4E1" stroke="#4E49E2" stroke-width="1.5" stroke-linecap="round" stroke-linejoin="round"/>
<path d="M87.6886 107.997C87.6886 107.997 82.2539 110.608 81.7313 112.248C81.2086 113.887 90.4978 132.511 93.9725 133.858C97.4472 135.206 108.87 138.395 110.738 137.319C112.606 136.242 117.044 132.559 116.41 130.843C115.776 129.127 108.028 110.677 105.748 109.892C103.467 109.106 90.833 107.564 87.6748 107.997L87.6886 107.997Z" fill="#B8F16F" stroke="#4E49E2" stroke-width="1.5" stroke-linecap="round" stroke-linejoin="round"/>
<path d="M99.2256 115.637C98.4292 115.631 97.6782 115.183 97.335 114.422L94.2717 107.775L87.5849 107.018L89.8019 111.134C90.3388 112.145 89.9516 113.397 88.9274 113.927C87.9032 114.457 86.6348 114.075 86.0979 113.063L82.0221 105.47C81.6502 104.791 81.6987 103.964 82.1368 103.333C82.5749 102.702 83.3322 102.349 84.114 102.438L95.938 103.787C96.6639 103.876 97.3031 104.322 97.6052 104.987L101.149 112.7C101.63 113.738 101.159 114.962 100.107 115.437C99.827 115.559 99.5191 115.626 99.2257 115.623L99.2256 115.637Z" fill="#4E49E2"/>
<path d="M83.8777 114.249L99.8887 116.733L104.62 112.407" stroke="#4E49E2" stroke-width="1.5" stroke-linecap="round" stroke-linejoin="round"/>
<path d="M100.222 116.736L107.72 134.25" stroke="#4E49E2" stroke-width="1.5" stroke-linecap="round" stroke-linejoin="round"/>
<path d="M53.6536 135.595C53.6536 135.595 49.8042 137.67 50.9372 139.335C52.0702 141 65.652 139.471 65.652 139.471L65.7885 135.595H53.6536Z" fill="#BFC4E1" stroke="#4E49E2" stroke-width="1.5" stroke-linecap="round" stroke-linejoin="round"/>
<path d="M82.8654 136.427C82.8654 136.427 86.7148 138.502 85.5818 140.167C84.4352 141.833 70.867 140.304 70.867 140.304L70.7305 136.427H82.8654Z" fill="#BFC4E1" stroke="#4E49E2" stroke-width="1.5" stroke-linecap="round" stroke-linejoin="round"/>
<path d="M49.3809 114.969L54.0902 135.171L65.802 135.444C65.802 135.444 66.6619 126.858 68.6548 126.858C70.6478 126.858 70.6478 135.444 70.6478 135.444H81.4996L86.6457 115.788L49.3809 114.956V114.969Z" fill="#6D6EE4" stroke="#4E49E2" stroke-width="1.5" stroke-linecap="round" stroke-linejoin="round"/>
<path d="M49.1352 95.8589C49.1352 95.8589 42.0235 96.7462 39.6074 100.05L50.6504 108.554L49.3809 118.204L86.9597 117.699C86.9597 117.699 88.4886 107.421 88.4886 98.7801L96.1053 94.2073L86.0725 86.0854C86.0725 86.0854 61.1883 92.5556 49.1216 95.8589H49.1352Z" fill="#B8F16F" stroke="#4E49E2" stroke-width="1.5" stroke-linecap="round" stroke-linejoin="round"/>
<path d="M49.1357 95.859C49.1357 95.859 52.1797 106.015 51.1696 113.386C51.1696 113.386 55.4831 104.117 54.4729 94.0845L49.1357 95.859Z" fill="#E2257F" stroke="#4E49E2" stroke-width="1.5" stroke-linecap="round" stroke-linejoin="round"/>
<path d="M80.8721 87.0959C80.8721 87.0959 86.9737 104.118 88.4889 106.779C88.4889 106.779 86.8372 89.007 85.5677 84.1748L80.8721 87.0959Z" fill="#E2257F" stroke="#4E49E2" stroke-width="1.5" stroke-linecap="round" stroke-linejoin="round"/>
<path d="M38.599 102.33C38.599 102.33 36.3194 104.364 36.9473 108.8C37.5752 113.236 44.059 121.631 49.014 120.102C53.969 118.574 52.6996 112.991 51.6758 111.093C50.6657 109.182 49.7648 108.677 49.7648 108.677L50.7749 108.036L40.6192 100.037L38.5853 102.316L38.599 102.33Z" fill="white" stroke="#4E49E2" stroke-width="1.5" stroke-linecap="round" stroke-linejoin="round"/>
<path d="M66.6757 34.1202C66.6757 34.1202 70.525 25.4523 77.0225 28.9877C83.5336 32.5231 79.9846 38.8568 79.9846 38.8568C79.9846 38.8568 88.0791 40.0989 93.3207 57.2435C94.3036 60.4649 98.5487 65.0377 97.1564 72.1085C95.4092 81.022 86.6185 88.0655 67.6039 93.2252C50.6504 97.8253 38.4609 96.3238 33.0827 89.5124C28.6191 83.8476 30.2435 78.019 29.3016 74.7839C25.7253 62.4442 30.5028 51.8517 30.5028 51.8517C30.5028 51.8517 23.2956 47.2652 27.1176 40.9179C30.9396 34.5706 39.5938 41.0271 39.5938 41.0271C39.5938 41.0271 43.3067 37.2597 51.9881 34.8982C60.6696 32.5367 66.662 34.1202 66.662 34.1202H66.6757Z" fill="white" stroke="#4E49E2" stroke-width="1.5" stroke-linecap="round" stroke-linejoin="round"/>
<path d="M43.6067 36.2906C43.6067 36.2906 38.406 39.512 39.7028 42.4468C40.9995 45.3816 51.906 39.6485 54.0354 38.5292C56.1648 37.4099 62.1026 34.4068 64.819 33.9291C64.819 33.9291 63.4267 25.6981 59.9869 23.7188C56.547 21.7395 52.4247 21.0707 48.7255 23.3639C45.0263 25.6571 42.2963 28.237 42.4055 31.6086C42.5147 34.9802 43.6067 36.3042 43.6067 36.3042V36.2906Z" fill="#6D6EE4" stroke="#4E49E2" stroke-width="1.5" stroke-linecap="round" stroke-linejoin="round"/>
<path d="M49.3133 26.2168C49.3133 26.2168 47.1703 29.6566 47.9893 32.373" stroke="#4E49E2" stroke-width="1.5" stroke-linecap="round" stroke-linejoin="round"/>
<path d="M52.0293 25.9707C52.0293 25.9707 54.6774 28.5369 55.2917 30.1203" stroke="#4E49E2" stroke-width="1.5" stroke-linecap="round" stroke-linejoin="round"/>
<path d="M56.1641 24.7153C56.1641 24.7153 59.1807 25.9029 59.8223 28.6193" stroke="#4E49E2" stroke-width="1.5" stroke-linecap="round" stroke-linejoin="round"/>
<path d="M46.2686 35.7176C46.2686 35.7176 51.988 33.7111 58.7311 33.4927" stroke="#4E49E2" stroke-width="1.5" stroke-linecap="round" stroke-linejoin="round"/>
<path d="M49.7937 79.1821C52.6667 78.5939 54.6525 76.4407 54.2292 74.3727C53.8058 72.3048 51.1336 71.1051 48.2606 71.6933C45.3876 72.2815 43.4018 74.4347 43.8252 76.5027C44.2485 78.5706 46.9207 79.7703 49.7937 79.1821Z" fill="#FFE9E9"/>
<path d="M76.3289 71.7094C79.1047 70.7634 80.8029 68.3768 80.1219 66.3788C79.441 64.3808 76.6387 63.528 73.8629 64.4741C71.0871 65.4201 69.3889 67.8067 70.0699 69.8047C70.7508 71.8027 73.5531 72.6555 76.3289 71.7094Z" fill="#FFE9E9"/>
<path d="M50.2272 61.9392C50.2272 61.9392 47.7975 62.2941 48.5483 65.5565C49.299 68.8326 50.2955 69.1465 51.6196 68.8462C52.9436 68.5459 53.9947 67.1536 53.0119 64.2598C52.0291 61.3659 50.2272 61.9392 50.2272 61.9392Z" fill="#4E49E2"/>
<path d="M69.2282 56.7791C69.2282 56.7791 66.7985 57.134 67.5493 60.3964C68.3 63.6724 69.2965 63.9863 70.6205 63.686C71.9446 63.3857 72.9957 61.9934 72.0129 59.0996C71.03 56.2058 69.2282 56.7791 69.2282 56.7791Z" fill="#4E49E2"/>
<path d="M60.7387 65.9927C60.1654 66.1701 59.1007 66.4704 59.401 67.7808C59.7013 69.0912 61.0117 69.8147 61.8444 69.5007C62.7316 69.1731 63.5097 67.6034 62.718 66.1428C62.3494 65.4603 61.4485 65.7606 60.7387 65.979V65.9927Z" fill="#4E49E2"/>
<path d="M61.8438 69.5146L63.3316 75.4934" stroke="#4E49E2" stroke-width="1.5" stroke-linecap="round" stroke-linejoin="round"/>
<path d="M58.1582 76.8179C58.1582 76.8179 63.9732 76.777 68.5323 73.1597C68.5323 73.1597 71.2487 79.5206 65.188 81.6501C61.5161 82.9468 58.8271 78.9064 58.1582 76.8179Z" stroke="#4E49E2" stroke-width="1.5" stroke-linecap="round" stroke-linejoin="round"/>
<path opacity="0.95" d="M45.5186 67.3711L74.1429 59.0991C74.1429 59.0991 77.5145 67.0708 70.5802 68.8317C63.6459 70.5925 61.8987 63.7265 61.8987 63.7265L58.377 64.8049C58.377 64.8049 61.0934 71.7118 54.7187 73.541C48.3441 75.3837 45.7097 67.9717 45.5186 67.3575V67.3711Z" fill="#6D6EE4" stroke="#4E49E2" stroke-linecap="round" stroke-linejoin="round"/>
<path d="M95.2183 93.8247C95.2183 93.8247 100.419 91.9137 100.173 86.9723C99.9276 82.031 97.1293 76.5573 83.6702 77.8268C83.6702 77.8268 84.4347 72.3667 82.2779 72.3667C80.1212 72.3667 79.0975 73.6362 78.3467 77.9496C78.3467 77.9496 71.6172 77.5674 71.6172 82.0173C71.6172 86.4673 73.8968 89.1291 78.606 89.8935C83.3153 90.6579 84.8305 89.8935 88.516 90.6579C92.2016 91.4223 95.2456 93.8384 95.2456 93.8384L95.2183 93.8247Z" fill="white" stroke="#4E49E2" stroke-width="1.5" stroke-linecap="round" stroke-linejoin="round"/>
</svg>
