<svg width="96" height="104" viewBox="0 0 96 104" fill="none" xmlns="http://www.w3.org/2000/svg">
<g clip-path="url(#clip0_1861_3263)">
<path d="M36.1773 99.4653C36.1773 99.4653 33.0425 101.21 33.9691 102.6C34.8958 104 45.9464 102.718 45.9464 102.718L46.0647 99.4653H36.1773Z" fill="#BFC4E1" stroke="#4E49E2" stroke-width="1.5" stroke-linecap="round" stroke-linejoin="round"/>
<path d="M67.5645 99.7019C67.5645 99.7019 68.7277 102.255 70.1176 102.492C71.5076 102.728 82.4399 101.565 82.4399 101.565C82.4399 101.565 80.8134 98.5387 79.1868 98.0753C77.5603 97.612 67.5645 99.7019 67.5645 99.7019Z" fill="#BFC4E1" stroke="#4E49E2" stroke-width="1.5" stroke-linecap="round" stroke-linejoin="round"/>
<path d="M35.5071 86.1576C35.5071 86.1576 33.3877 90.288 33.3877 93.7777C33.3877 97.2673 33.9693 99.1305 33.9693 99.1305L47.5731 99.5938C47.5731 99.5938 47.4548 94.0143 53.2709 94.0143C59.087 94.0143 67.338 99.8304 67.338 99.8304L80.1236 98.0855L70.5024 85.3887L35.5071 86.1674V86.1576Z" fill="#6D6EE4" stroke="#4E49E2" stroke-width="1.5" stroke-linecap="round" stroke-linejoin="round"/>
<path d="M72.3947 65.3672L66.3223 74.4265C66.3223 74.4265 79.5219 83.2887 85.6929 82.8352C91.8639 82.3818 93.8946 78.4387 92.6624 75.2447C91.4301 72.0508 85.269 70.0792 80.557 68.2555C75.8548 66.4318 72.3848 65.377 72.3848 65.377L72.3947 65.3672Z" fill="white" stroke="#4E49E2" stroke-width="1.5" stroke-linecap="round" stroke-linejoin="round"/>
<path d="M31.4648 67.4865C31.4648 67.4865 13.8883 54.7502 11.3055 51.5858C9.06781 48.8453 7.77644 45.405 5.588 46.302C3.00526 47.3568 4.75009 50.6395 5.53872 52.4139C5.53872 52.4139 0.964688 56.9485 3.508 61.0986C6.05132 65.2488 15.0712 72.721 24.8995 75.3925C34.7277 78.0639 31.4648 67.4766 31.4648 67.4766V67.4865Z" fill="white" stroke="#4E49E2" stroke-width="1.5" stroke-linecap="round" stroke-linejoin="round"/>
<path d="M20.4043 62.9717L20.9465 75.7474L32.2633 79.592L34.6784 86.4037L72.2071 85.6151L70.6102 77.5711L76.7516 81.0608L79.1569 66.7177L72.0987 63.78L20.4043 62.9717Z" fill="#B8F16F" stroke="#4E49E2" stroke-width="1.5" stroke-linecap="round" stroke-linejoin="round"/>
<path d="M60.5158 15.3483C60.5158 15.3483 66.1544 8.41822 71.1918 13.2387C76.2291 18.069 71.4481 22.9486 71.4481 22.9486C71.4481 22.9486 78.5063 26.0736 79.0386 42.96C79.1372 46.1342 81.8579 51.3392 78.8612 57.4313C75.0758 65.1007 65.3461 69.3395 46.7739 69.3395C30.2325 69.3395 19.5072 64.9627 16.3034 57.4313C13.6418 51.1814 16.5597 46.2821 16.5006 43.1079C16.3034 31.0025 23.2532 22.5445 23.2532 22.5445C23.2532 22.5445 17.8314 16.6002 22.8687 11.7699C27.9061 6.93955 34.1855 14.9441 34.1855 14.9441C34.1855 14.9441 38.4934 12.4304 46.9711 12.4304C55.4488 12.4304 60.5059 15.3483 60.5059 15.3483H60.5158Z" fill="white" stroke="#4E49E2" stroke-width="1.5" stroke-linecap="round" stroke-linejoin="round"/>
<path d="M39.0055 11.6222C39.0055 11.6222 33.4851 13.2684 33.9386 16.2553C34.3921 19.2422 45.7285 16.7186 47.9465 16.2356C50.1646 15.7526 56.2961 14.4809 58.8887 14.7076C58.8887 14.7076 59.6576 6.88054 57.0157 4.22879C54.3738 1.57703 50.7955 -0.0396479 46.8622 1.12357C42.9289 2.2868 39.8138 3.96263 39.0745 7.04812C38.345 10.1435 39.0055 11.6222 39.0055 11.6222Z" fill="#6D6EE4" stroke="#4E49E2" stroke-width="1.5" stroke-linecap="round" stroke-linejoin="round"/>
<path d="M46.6752 3.87402C46.6752 3.87402 43.8756 6.47649 43.9446 9.1381" stroke="#4E49E2" stroke-width="1.5" stroke-linecap="round" stroke-linejoin="round"/>
<path d="M49.2178 4.32715C49.2178 4.32715 50.9922 7.31407 51.1598 8.91103" stroke="#4E49E2" stroke-width="1.5" stroke-linecap="round" stroke-linejoin="round"/>
<path d="M53.2891 4.19922C53.2891 4.19922 55.7338 6.02292 55.6549 8.6451" stroke="#4E49E2" stroke-width="1.5" stroke-linecap="round" stroke-linejoin="round"/>
<path d="M41.5586 11.7604C41.5586 11.7604 47.2564 11.3463 53.4373 12.8151" stroke="#4E49E2" stroke-width="1.5" stroke-linecap="round" stroke-linejoin="round"/>
<path d="M39.2608 48.871C39.3863 46.8878 37.2504 45.1385 34.4902 44.9639C31.73 44.7893 29.3907 46.2555 29.2653 48.2387C29.1398 50.2219 31.2757 51.9712 34.0359 52.1458C36.7961 52.3204 39.1354 50.8542 39.2608 48.871Z" fill="#FFE9E9"/>
<path d="M60.0117 51.9145C62.7719 51.7399 64.9078 49.9906 64.7823 48.0074C64.6568 46.0242 62.3175 44.558 59.5573 44.7326C56.7972 44.9073 54.6613 46.6565 54.7868 48.6398C54.9122 50.623 57.2515 52.0891 60.0117 51.9145Z" fill="#FFE9E9"/>
<path d="M38.691 36.5824C38.691 36.5824 36.3941 36.2965 36.266 39.4609C36.1378 42.6252 36.9659 43.1575 38.2474 43.2167C39.5289 43.2758 40.8203 42.2605 40.6428 39.3919C40.4654 36.5232 38.6811 36.5824 38.6811 36.5824H38.691Z" fill="#4E49E2"/>
<path d="M57.2427 36.5824C57.2427 36.5824 54.9459 36.2965 54.8177 39.4609C54.6896 42.6252 55.5176 43.1575 56.7991 43.2167C58.0807 43.2758 59.372 42.2605 59.1946 39.3919C59.0172 36.5134 57.2329 36.5824 57.2329 36.5824H57.2427Z" fill="#4E49E2"/>
<path d="M47.237 42.8614C46.6751 42.8811 45.6301 42.8909 45.5808 44.1626C45.5316 45.4343 46.5371 46.4102 47.3848 46.3412C48.272 46.2623 49.3663 45.0202 49.0015 43.5021C48.8339 42.7825 47.9467 42.8416 47.237 42.8712V42.8614Z" fill="#4E49E2"/>
<path d="M47.3459 45.3755L47.1191 53.2815" stroke="#4E49E2" stroke-width="1.5" stroke-linecap="round" stroke-linejoin="round"/>
<path d="M42.2197 52.0589C42.2197 52.0589 44.6842 53.8826 47.6317 53.577C49.3962 53.3996 52.4127 53.4587 53.6449 50.6689" stroke="#4E49E2" stroke-width="1.5" stroke-linecap="round" stroke-linejoin="round"/>
<path d="M30.5576 68.1963C30.5576 68.1963 31.4843 78.892 32.4207 81.6818C32.4207 81.6818 35.6738 72.376 35.2105 69.2806L30.5576 68.1963Z" fill="#E2257F" stroke="#4E49E2" stroke-width="1.5" stroke-linecap="round" stroke-linejoin="round"/>
<path d="M69.3292 66.1362C69.3292 66.1362 70.8276 76.7728 70.5515 79.7006C70.5515 79.7006 65.2875 71.3707 65.041 68.2458L69.3292 66.1461V66.1362Z" fill="#E2257F" stroke="#4E49E2" stroke-width="1.5" stroke-linecap="round" stroke-linejoin="round"/>
<path opacity="0.95" d="M33.0615 40.368L61.1267 39.9146C61.1267 39.9146 62.2308 47.998 55.4881 47.8895C48.7453 47.7811 48.8537 41.1073 48.8537 41.1073L45.3838 41.2158C45.3838 41.2158 46.1527 48.1655 39.9029 48.2641C33.653 48.3627 33.0911 40.9693 33.0615 40.368Z" fill="#6D6EE4" stroke="#4E49E2" stroke-linecap="round" stroke-linejoin="round"/>
</g>
<defs>
<clipPath id="clip0_1861_3263">
<rect width="96" height="104" fill="white"/>
</clipPath>
</defs>
</svg>
