<svg width="126" height="16" viewBox="0 0 126 16" fill="none" xmlns="http://www.w3.org/2000/svg">
<path d="M0.888436 8.896V10.608H14.3124V8.896H0.888436ZM6.48844 10V15.44H8.60044V10H6.48844ZM7.56044 1.104C4.40844 1.104 2.21644 2.416 2.21644 4.448C2.21644 6.464 4.40844 7.76 7.56044 7.76C10.7284 7.76 12.9204 6.464 12.9204 4.448C12.9204 2.416 10.7284 1.104 7.56044 1.104ZM7.56044 2.8C9.51244 2.8 10.7284 3.376 10.7284 4.448C10.7284 5.504 9.51244 6.08 7.56044 6.08C5.62444 6.08 4.39244 5.504 4.39244 4.448C4.39244 3.376 5.62444 2.8 7.56044 2.8ZM25.4952 0.591999V15.456H27.6232V0.591999H25.4952ZM16.0872 10.272V12H17.3992C20.1032 12 22.2792 11.92 24.6792 11.488L24.4712 9.776C22.1192 10.176 20.0232 10.272 17.3992 10.272H16.0872ZM16.0712 1.856V3.552H20.8872V5.904H16.0872V10.912H18.2472V7.584H23.0632V1.856H16.0712ZM42.8863 0.608V9.536H45.0143V0.608H42.8863ZM44.4223 4.256V6H46.9823V4.256H44.4223ZM35.3823 10.176V15.264H45.0143V10.176H35.3823ZM42.9343 11.856V13.584H37.4783V11.856H42.9343ZM33.3503 1.936V3.616H42.0703V1.936H33.3503ZM37.7183 4.048C35.5583 4.048 34.0703 5.136 34.0703 6.72C34.0703 8.32 35.5583 9.376 37.7183 9.376C39.8623 9.376 41.3503 8.32 41.3503 6.72C41.3503 5.136 39.8623 4.048 37.7183 4.048ZM37.7183 5.632C38.6623 5.632 39.3183 6 39.3183 6.72C39.3183 7.44 38.6623 7.824 37.7183 7.824C36.7583 7.824 36.1183 7.44 36.1183 6.72C36.1183 6 36.7583 5.632 37.7183 5.632ZM36.6463 0.511999V2.848H38.7743V0.511999H36.6463ZM49.5571 2.288V2.464C49.5571 6.128 49.2531 8.704 47.5251 11.424L49.1571 12.304C50.9971 9.36 51.3491 6.048 51.3491 2.288H49.5571ZM48.0051 2.288V4H50.6931V2.288H48.0051ZM52.8691 2.288V2.48C52.8691 6.176 52.7091 9.184 50.8211 12.128L52.4531 13.024C54.4371 9.856 54.6611 6.16 54.6611 2.288H52.8691ZM51.7971 2.288V4H54.0691V2.288H51.7971ZM58.5811 0.608V15.424H60.6131V0.608H58.5811ZM53.9411 6.16V7.872H56.0371V6.16H53.9411ZM55.7171 0.927999V14.768H57.7011V0.927999H55.7171ZM72.4362 3.632V5.344H76.4682V3.632H72.4362ZM72.4362 8.224V9.936H76.4682V8.224H72.4362ZM69.8762 1.632C67.6522 1.632 66.0522 3.68 66.0522 6.912C66.0522 10.176 67.6522 12.224 69.8762 12.224C72.0842 12.224 73.7002 10.176 73.7002 6.912C73.7002 3.68 72.0842 1.632 69.8762 1.632ZM69.8762 3.568C70.9642 3.568 71.6842 4.736 71.6842 6.912C71.6842 9.12 70.9642 10.304 69.8762 10.304C68.8042 10.304 68.0682 9.12 68.0682 6.912C68.0682 4.736 68.8042 3.568 69.8762 3.568ZM76.1322 0.591999V15.456H78.2442V0.591999H76.1322ZM90.8189 0.608V9.888H92.8349V0.608H90.8189ZM89.0109 4.256V5.984H91.3789V4.256H89.0109ZM87.7469 0.895999V9.408H89.7309V0.895999H87.7469ZM80.1469 2.128V3.76H87.3309V2.128H80.1469ZM83.7629 4.24C81.9069 4.24 80.5629 5.296 80.5629 6.832C80.5629 8.368 81.9069 9.408 83.7629 9.408C85.6189 9.408 86.9629 8.368 86.9629 6.832C86.9629 5.296 85.6189 4.24 83.7629 4.24ZM83.7629 5.76C84.5309 5.76 85.0589 6.144 85.0589 6.832C85.0589 7.52 84.5309 7.904 83.7629 7.904C82.9789 7.904 82.4509 7.52 82.4509 6.832C82.4509 6.144 82.9789 5.76 83.7629 5.76ZM82.6909 0.751999V3.248H84.7869V0.751999H82.6909ZM87.8269 10.048C84.6429 10.048 82.7229 11.008 82.7229 12.736C82.7229 14.448 84.6429 15.424 87.8269 15.424C90.9949 15.424 92.9149 14.448 92.9149 12.736C92.9149 11.008 90.9949 10.048 87.8269 10.048ZM87.8269 11.632C89.7949 11.632 90.7869 11.968 90.7869 12.736C90.7869 13.488 89.7949 13.84 87.8269 13.84C85.8429 13.84 84.8509 13.488 84.8509 12.736C84.8509 11.968 85.8429 11.632 87.8269 11.632ZM108.258 0.608V15.424H110.386V0.608H108.258ZM109.378 6.176V7.936H111.986V6.176H109.378ZM100.034 3.04V4.256C100.034 6.72 99.7781 9.328 97.9381 10.736L99.2501 12.272C101.266 10.704 101.586 7.456 101.586 4.256V3.04H100.034ZM100.53 3.04V4.256C100.53 7.232 100.898 10.768 103.122 12.416L104.242 10.848C102.29 9.296 102.034 6.544 102.034 4.256V3.04H100.53ZM104.21 3.04V4.256C104.21 6.576 103.938 9.312 102.002 10.848L103.122 12.416C105.33 10.784 105.714 7.28 105.714 4.256V3.04H104.21ZM104.674 3.04V4.256C104.674 7.488 105.01 10.704 107.026 12.272L108.338 10.736C106.498 9.344 106.242 6.752 106.242 4.256V3.04H104.674ZM98.4981 1.872V3.584H102.882V1.872H98.4981ZM103.378 1.872V3.584H107.522V1.872H103.378ZM119.297 3.632V5.344H123.329V3.632H119.297ZM119.297 8.224V9.936H123.329V8.224H119.297ZM116.737 1.632C114.513 1.632 112.913 3.68 112.913 6.912C112.913 10.176 114.513 12.224 116.737 12.224C118.945 12.224 120.561 10.176 120.561 6.912C120.561 3.68 118.945 1.632 116.737 1.632ZM116.737 3.568C117.825 3.568 118.545 4.736 118.545 6.912C118.545 9.12 117.825 10.304 116.737 10.304C115.665 10.304 114.929 9.12 114.929 6.912C114.929 4.736 115.665 3.568 116.737 3.568ZM122.993 0.591999V15.456H125.105V0.591999H122.993Z" fill="#5244EB"/>
</svg>
