<svg width="111" height="51" viewBox="0 0 111 51" fill="none" xmlns="http://www.w3.org/2000/svg">
<path d="M12.4736 11.1541C14.5033 11.1541 16.1483 9.47287 16.1483 7.39856C16.1483 5.32426 14.5033 3.64307 12.4736 3.64307C10.4439 3.64307 8.79883 5.32426 8.79883 7.39856C8.79883 9.47287 10.4439 11.1541 12.4736 11.1541Z" fill="#B8F16F"/>
<path d="M29.3036 11.1541C31.3333 11.1541 32.9784 9.47287 32.9784 7.39856C32.9784 5.32426 31.3333 3.64307 29.3036 3.64307C27.2739 3.64307 25.6289 5.32426 25.6289 7.39856C25.6289 9.47287 27.2739 11.1541 29.3036 11.1541Z" fill="#B8F16F"/>
<path d="M33.0763 31.094V20.8353H37.2052C39.239 20.8353 40.8881 19.15 40.8881 17.0715C40.8881 14.993 39.239 13.3076 37.2052 13.3076H4.57457C2.54078 13.3076 0.891648 14.993 0.891648 17.0715C0.891648 19.15 2.54078 20.8353 4.57457 20.8353H8.78946V31.0061L1.96788 37.9776C0.53154 39.4456 0.53154 41.8293 1.96788 43.3014C3.40422 44.7693 5.73673 44.7693 7.17716 43.3014L12.4724 37.8898L16.3926 41.8962L17.4443 42.971C19.3472 44.9157 22.4285 44.9157 24.3314 42.971L25.87 41.3986L29.3033 37.8898L34.5985 43.2972C36.0349 44.7651 38.3674 44.7651 39.8078 43.2972C41.2442 41.8293 41.2483 39.4456 39.8078 37.9735L33.0763 31.094ZM25.6204 31.0061L20.8858 35.8406L16.1553 31.0061V20.8353H25.6204V31.0061Z" fill="white"/>
<path d="M59.2769 28.3759C59.2769 30.3206 57.7341 31.8931 55.8354 31.8931H51.5632V47.6804H44.0664V12.9065C44.0664 10.7903 45.7442 9.07568 47.8148 9.07568C49.8854 9.07568 51.5632 10.7903 51.5632 12.9065V24.8588H55.8354C57.7341 24.8588 59.2728 26.4313 59.2769 28.3759Z" fill="white"/>
<path d="M106.767 9.07178C104.701 9.07178 103.027 10.7822 103.027 12.8858V17.8876H91.3236C88.3936 14.0443 83.88 11.581 78.818 11.581C69.9872 11.581 62.8301 19.0711 62.8301 28.3093C62.8301 37.5475 69.9872 45.0376 78.818 45.0376C83.8841 45.0376 88.3977 42.5743 91.3277 38.7268H103.031V47.6221H110.499V12.8858C110.499 10.7781 108.83 9.07178 106.767 9.07178ZM86.4908 32.1317C86.0816 33.3152 85.5087 34.3524 84.7844 35.2055C84.0682 36.0545 83.1843 36.732 82.1531 37.2422C81.1301 37.7399 79.9966 37.995 78.7894 37.995C77.5822 37.995 76.461 37.7399 75.4707 37.2464C74.4599 36.7403 73.5842 36.0587 72.8681 35.2097C72.1479 34.3608 71.575 33.3236 71.1617 32.1359C70.7484 30.9398 70.5397 29.6392 70.5397 28.2717C70.5397 26.9041 70.7484 25.6955 71.1576 24.5245C71.5668 23.3577 72.1438 22.3206 72.8722 21.4382C73.5842 20.5766 74.4558 19.895 75.4543 19.4182C76.4528 18.9373 77.574 18.6989 78.7894 18.6989C80.0048 18.6989 81.1342 18.9415 82.1654 19.4224C83.1843 19.8992 84.0641 20.5766 84.7762 21.4382C85.5046 22.3248 86.0816 23.3619 86.4908 24.5245C86.9041 25.6913 87.1128 26.9501 87.1128 28.2675C87.1128 29.5848 86.9041 30.9356 86.4908 32.1317ZM103.031 31.6884H94.4827C94.6955 30.5969 94.806 29.4677 94.806 28.3093C94.806 27.1509 94.6914 26.0175 94.4786 24.926H103.031V31.6884Z" fill="white"/>
</svg>
