<svg width="54" height="21" viewBox="0 0 54 21" fill="none" xmlns="http://www.w3.org/2000/svg">
<path d="M5.60995 3.55975C6.59305 3.55975 7.38983 2.76297 7.38983 1.77988C7.38983 0.796782 6.59305 0 5.60995 0C4.62686 0 3.83008 0.796782 3.83008 1.77988C3.83008 2.76297 4.62686 3.55975 5.60995 3.55975Z" fill="white"/>
<path d="M13.7623 3.55975C14.7454 3.55975 15.5422 2.76297 15.5422 1.77988C15.5422 0.796782 14.7454 0 13.7623 0C12.7792 0 11.9824 0.796782 11.9824 1.77988C11.9824 2.76297 12.7792 3.55975 13.7623 3.55975Z" fill="white"/>
<path d="M15.5893 13.0102V8.14825H17.5892C18.5742 8.14825 19.373 7.34948 19.373 6.36441C19.373 5.37933 18.5742 4.58057 17.5892 4.58057H1.78434C0.79926 4.58057 0.000495487 5.37933 0.000495487 6.36441C0.000495487 7.34948 0.79926 8.14825 1.78434 8.14825H3.82584V12.9686L0.521773 16.2726C-0.173924 16.9683 -0.173924 18.0981 0.521773 18.7958C1.21747 19.4915 2.34724 19.4915 3.04492 18.7958L5.60968 16.231L7.50848 18.1298L8.01787 18.6392C8.93952 19.5609 10.432 19.5609 11.3536 18.6392L12.0989 17.894L13.7618 16.231L16.3266 18.7938C17.0223 19.4895 18.1521 19.4895 18.8497 18.7938C19.5454 18.0981 19.5474 16.9683 18.8497 16.2707L15.5893 13.0102ZM11.978 12.9686L9.68477 15.2598L7.39352 12.9686V8.14825H11.978V12.9686Z" fill="#5244EB"/>
<path d="M28.2803 11.7218C28.2803 12.6435 27.5331 13.3887 26.6134 13.3887H24.5442V20.871H20.9131V4.39026C20.9131 3.38735 21.7257 2.57471 22.7286 2.57471C23.7316 2.57471 24.5442 3.38735 24.5442 4.39026V10.0549H26.6134C27.5331 10.0549 28.2784 10.8002 28.2803 11.7218Z" fill="#5244EB"/>
<path d="M51.2822 2.57275C50.2813 2.57275 49.4706 3.38341 49.4706 4.38038V6.75091H43.802C42.3828 4.92941 40.1966 3.76198 37.7448 3.76198C33.4676 3.76198 30.001 7.31182 30.001 11.6902C30.001 16.0685 33.4676 19.6183 37.7448 19.6183C40.1986 19.6183 42.3848 18.4509 43.8039 16.6274H49.4726V20.8432H53.0898V4.38038C53.0898 3.38143 52.2811 2.57275 51.2822 2.57275ZM41.4612 13.5018C41.263 14.0627 40.9855 14.5542 40.6346 14.9586C40.2878 15.3609 39.8597 15.682 39.3602 15.9238C38.8647 16.1597 38.3157 16.2806 37.731 16.2806C37.1462 16.2806 36.6032 16.1597 36.1235 15.9258C35.6339 15.686 35.2098 15.3629 34.8629 14.9605C34.5141 14.5582 34.2366 14.0666 34.0364 13.5037C33.8362 12.9369 33.7351 12.3205 33.7351 11.6723C33.7351 11.0242 33.8362 10.4514 34.0344 9.89641C34.2326 9.34342 34.5121 8.85187 34.8649 8.43366C35.2098 8.02536 35.632 7.70229 36.1156 7.47633C36.5992 7.2484 37.1423 7.13542 37.731 7.13542C38.3196 7.13542 38.8667 7.25038 39.3661 7.47832C39.8597 7.70427 40.2858 8.02536 40.6307 8.43366C40.9835 8.85385 41.263 9.3454 41.4612 9.89641C41.6613 10.4494 41.7624 11.046 41.7624 11.6703C41.7624 12.2947 41.6613 12.9349 41.4612 13.5018ZM49.4726 13.2917H45.3321C45.4352 12.7743 45.4887 12.2392 45.4887 11.6902C45.4887 11.1411 45.4332 10.604 45.3301 10.0867H49.4726V13.2917Z" fill="#5244EB"/>
</svg>
